<?xml version="1.0" encoding="UTF-8" standalone="no"?>
<svg
   viewBox="0 0 1333.7358 532.57922"
   height="532.57922"
   width="1333.7358"
   xml:space="preserve"
   id="svg2"
   version="1.1"
   sodipodi:docname="Vuoden_2025_Eurovision_laulukilpailun_logo.svg"
   inkscape:version="1.2.2 (732a01da63, 2022-12-09)"
   xmlns:inkscape="http://www.inkscape.org/namespaces/inkscape"
   xmlns:sodipodi="http://sodipodi.sourceforge.net/DTD/sodipodi-0.dtd"
   xmlns="http://www.w3.org/2000/svg"
   xmlns:svg="http://www.w3.org/2000/svg"
   xmlns:rdf="http://www.w3.org/1999/02/22-rdf-syntax-ns#"
   xmlns:cc="http://creativecommons.org/ns#"
   xmlns:dc="http://purl.org/dc/elements/1.1/"><sodipodi:namedview
     id="namedview205"
     pagecolor="#ffffff"
     bordercolor="#000000"
     borderopacity="0.25"
     inkscape:showpageshadow="2"
     inkscape:pageopacity="0.0"
     inkscape:pagecheckerboard="0"
     inkscape:deskcolor="#d1d1d1"
     showgrid="false"
     inkscape:zoom="0.49747482"
     inkscape:cx="609.07605"
     inkscape:cy="73.370547"
     inkscape:window-width="1920"
     inkscape:window-height="991"
     inkscape:window-x="-9"
     inkscape:window-y="-9"
     inkscape:window-maximized="1"
     inkscape:current-layer="svg2" /><metadata
     id="metadata8"><rdf:RDF><cc:Work
         rdf:about=""><dc:format>image/svg+xml</dc:format><dc:type
           rdf:resource="http://purl.org/dc/dcmitype/StillImage" /></cc:Work></rdf:RDF></metadata><defs
     id="defs6"><clipPath
       id="clipPath20"
       clipPathUnits="userSpaceOnUse"><path
         style="clip-rule:evenodd"
         id="path18"
         d="m 1723.66,86.5195 67.3,80.6565 c 46.55,-38.488 95.36,-62.875 154.51,-62.875 46.6,0 74.72,18.496 74.72,48.82 v 1.496 c 0,28.844 -17.76,43.617 -104.29,65.821 -104.26,26.617 -171.54,55.476 -171.54,158.339 v 1.45 c 0,93.918 75.44,156.078 181.17,156.078 75.42,0 139.74,-23.672 192.24,-65.84 l -59.16,-85.828 c -45.85,31.851 -90.96,51.062 -134.57,51.062 -43.63,0 -66.55,-19.976 -66.55,-45.125 v -1.48 c 0,-34.004 22.17,-45.114 111.65,-68.051 105.02,-27.363 164.16,-65.09 164.16,-155.332 v -1.496 c 0,-102.8283 -78.38,-160.50016 -190.05,-160.50016 -78.37,0 -157.47,27.37896 -219.59,82.80466 z" /></clipPath><clipPath
       id="clipPath26"
       clipPathUnits="userSpaceOnUse"><path
         id="path24"
         d="M 0,0 H 9980 V 3160 H 0 Z" /></clipPath><clipPath
       id="clipPath36"
       clipPathUnits="userSpaceOnUse"><path
         style="clip-rule:evenodd"
         id="path34"
         d="m 2676.12,268.527 v 1.481 c 0,88.746 -65.08,162.746 -156.77,162.746 -91.69,0 -155.28,-72.52 -155.28,-161.266 v -1.48 c 0,-88.774 65.07,-162.762 156.75,-162.762 91.69,0.016 155.29,72.508 155.3,161.281 z m -431.09,0 v 1.481 c 0,147.211 116.08,267.793 275.79,267.793 159.74,0 274.34,-119.133 274.34,-266.313 v -1.48 c 0,-147.211 -116.11,-267.77362 -275.81,-267.77362 -159.71,0 -274.32,119.08162 -274.32,266.29262 z" /></clipPath><clipPath
       id="clipPath42"
       clipPathUnits="userSpaceOnUse"><path
         id="path40"
         d="M 0,0 H 9980 V 3160 H 0 Z" /></clipPath><clipPath
       id="clipPath52"
       clipPathUnits="userSpaceOnUse"><path
         style="clip-rule:evenodd"
         id="path50"
         d="m 2926.12,528.918 h 104.99 l 242.55,-318.84 v 318.84 h 112.37 V 11.1133 h -96.85 L 3038.52,340.27 V 11.1133 h -112.4 z" /></clipPath><clipPath
       id="clipPath58"
       clipPathUnits="userSpaceOnUse"><path
         id="path56"
         d="M 0,0 H 9980 V 3160 H 0 Z" /></clipPath><clipPath
       id="clipPath68"
       clipPathUnits="userSpaceOnUse"><path
         style="clip-rule:evenodd"
         id="path66"
         d="m 3531.06,268.527 v 1.481 c 0,147.211 114.61,267.793 271.39,267.793 93.13,0 149.34,-25.168 203.31,-70.996 l -71.72,-86.578 c -39.93,33.269 -75.43,52.527 -135.3,52.527 -82.81,0 -148.66,-73.238 -148.66,-161.266 v -1.48 c 0,-94.695 65.11,-164.242 156.79,-164.242 41.42,0 78.36,10.379 107.2,31.07 v 74.019 h -114.59 v 98.375 h 224.77 V 84.3242 C 3971.01,39.2109 3897.8,2.23438 3803.18,2.23438 c -161.22,0 -272.12,113.16062 -272.12,266.29262 z" /></clipPath><clipPath
       id="clipPath74"
       clipPathUnits="userSpaceOnUse"><path
         id="path72"
         d="M 0,0 H 9980 V 3160 H 0 Z" /></clipPath><clipPath
       id="clipPath84"
       clipPathUnits="userSpaceOnUse"><path
         style="clip-rule:evenodd"
         id="path82"
         d="m 4421.45,268.527 v 1.481 c 0,147.211 110.9,267.793 269.89,267.793 97.55,0 156.01,-32.555 204.1,-79.926 l -72.51,-83.57 c -39.94,36.261 -80.61,58.449 -132.34,58.449 -87.26,0 -150.11,-72.52 -150.11,-161.266 v -1.48 c 0,-88.774 61.38,-162.762 150.11,-162.762 59.13,0.016 95.34,23.684 136.02,60.664 L 4899.1,94.6719 C 4845.84,37.7305 4786.68,2.23438 4686.9,2.23438 c -152.32,0 -265.45,117.61762 -265.45,266.29262 z" /></clipPath><clipPath
       id="clipPath90"
       clipPathUnits="userSpaceOnUse"><path
         id="path88"
         d="M 0,0 H 9980 V 3160 H 0 Z" /></clipPath><clipPath
       id="clipPath100"
       clipPathUnits="userSpaceOnUse"><path
         style="clip-rule:evenodd"
         id="path98"
         d="m 5427.9,268.527 v 1.481 c 0,88.746 -65.11,162.746 -156.76,162.746 -91.73,0 -155.3,-72.52 -155.3,-161.266 v -1.48 c 0,-88.774 65.08,-162.762 156.78,-162.762 91.68,0.016 155.28,72.508 155.28,161.281 z m -431.09,0 v 1.481 c 0,147.211 116.06,267.793 275.81,267.793 159.72,0 274.3,-119.133 274.3,-266.313 l 0.01,-1.48 c 0,-147.211 -116.09,-267.77362 -275.79,-267.77362 -159.71,0 -274.33,119.08162 -274.33,266.29262 z" /></clipPath><clipPath
       id="clipPath106"
       clipPathUnits="userSpaceOnUse"><path
         id="path104"
         d="M 0,0 H 9980 V 3160 H 0 Z" /></clipPath><clipPath
       id="clipPath116"
       clipPathUnits="userSpaceOnUse"><path
         style="clip-rule:evenodd"
         id="path114"
         d="m 5677.91,528.918 h 104.99 l 242.55,-318.84 v 318.84 h 112.4 V 11.1133 h -96.9 L 5790.3,340.27 V 11.1133 H 5677.91 V 528.918" /></clipPath><clipPath
       id="clipPath122"
       clipPathUnits="userSpaceOnUse"><path
         id="path120"
         d="M 0,0 H 9980 V 3160 H 0 Z" /></clipPath><clipPath
       id="clipPath132"
       clipPathUnits="userSpaceOnUse"><path
         style="clip-rule:evenodd"
         id="path130"
         d="m 6415.93,423.875 h -157.5 v 105.043 h 428.86 V 423.875 H 6529.8 V 11.1133 H 6415.93 V 423.875" /></clipPath><clipPath
       id="clipPath138"
       clipPathUnits="userSpaceOnUse"><path
         id="path136"
         d="M 0,0 H 9980 V 3160 H 0 Z" /></clipPath><clipPath
       id="clipPath148"
       clipPathUnits="userSpaceOnUse"><path
         style="clip-rule:evenodd"
         id="path146"
         d="m 6818.99,528.918 h 390.4 V 427.582 H 6932.15 V 322.555 h 243.99 V 221.188 H 6932.15 V 112.434 h 280.97 V 11.1133 H 6818.99 V 528.918" /></clipPath><clipPath
       id="clipPath154"
       clipPathUnits="userSpaceOnUse"><path
         id="path152"
         d="M 0,0 H 9980 V 3160 H 0 Z" /></clipPath><clipPath
       id="clipPath164"
       clipPathUnits="userSpaceOnUse"><path
         style="clip-rule:evenodd"
         id="path162"
         d="m 7322.63,86.5195 67.28,80.6565 c 46.57,-38.488 95.39,-62.875 154.56,-62.875 46.54,0 74.67,18.496 74.67,48.82 v 1.496 c 0,28.844 -17.75,43.617 -104.26,65.821 -104.27,26.617 -171.55,55.476 -171.55,158.339 l 0.02,1.45 c 0,93.918 75.39,156.078 181.15,156.078 75.39,0 139.75,-23.672 192.25,-65.84 l -59.16,-85.828 c -45.84,31.851 -90.97,51.062 -134.58,51.062 -43.6,0 -66.55,-19.976 -66.55,-45.125 v -1.48 c 0,-34.004 22.17,-45.114 111.64,-68.051 105.02,-27.363 164.16,-65.09 164.16,-155.332 l 0.01,-1.496 c 0,-102.8283 -78.38,-160.50016 -190.06,-160.50016 -78.33,0 -157.46,27.37896 -219.58,82.80466" /></clipPath><clipPath
       id="clipPath170"
       clipPathUnits="userSpaceOnUse"><path
         id="path168"
         d="M 0,0 H 9980 V 3160 H 0 Z" /></clipPath><clipPath
       id="clipPath180"
       clipPathUnits="userSpaceOnUse"><path
         style="clip-rule:evenodd"
         id="path178"
         d="m 7984.5,423.875 h -157.49 v 105.043 h 428.85 V 423.875 H 8098.33 V 11.1133 H 7984.5 V 423.875" /></clipPath><clipPath
       id="clipPath186"
       clipPathUnits="userSpaceOnUse"><path
         id="path184"
         d="M 0,0 H 9980 V 3160 H 0 Z" /></clipPath><clipPath
       id="clipPath196"
       clipPathUnits="userSpaceOnUse"><path
         style="clip-rule:evenodd"
         id="path194"
         d="m 8475.75,1232.82 c -133.43,6.77 -209.69,164.75 -200.37,326.2 16.37,284.54 254.06,571.73 254.06,571.73 55.5,-50.66 222.42,-325.24 213.35,-535.36 -8.85,-205.23 -133.71,-369.31 -267.04,-362.57 z m 158.83,992.46 c 57.37,66.85 96.71,105.82 87.85,152.17 -8.83,46.35 -165.76,78.5 -235.59,14.02 -206.56,163.98 -164.27,-28.11 -134.38,-70.95 -243.99,-171.66 -409.1,-623.54 -276.28,-976.14 129.85,-344.673 521.52,-387.2 726.87,-144.97 181.83,214.5 149.38,608.8 -168.47,1025.87 z" /></clipPath><clipPath
       id="clipPath202"
       clipPathUnits="userSpaceOnUse"><path
         id="path200"
         d="M 0,0 H 9980 V 3160 H 0 Z" /></clipPath><clipPath
       id="clipPath212"
       clipPathUnits="userSpaceOnUse"><path
         style="clip-rule:evenodd"
         id="path210"
         d="M 986.074,2910.52 C 525.73,2943.88 16.9766,2562.46 36.4336,2068.47 c 1.8672,-47.43 41.9609,-90.88 99.5154,-90.88 71.199,0 279.735,7.9 279.735,7.9 0,0 -411.44572,-324.51 -411.44572,-704.45 0,-200.49 150.33972,-440.638 464.18772,-440.638 439.859,0.016 767.724,360.278 767.104,665.478 -0.03,23.24 -26.68,56.01 -69.66,3.9 -68.16,-82.68 -433.737,-458.28 -795.046,-458.28 -121.308,0.02 -226.789,68.63 -226.789,213.71 0,189.98 300.668,559.37 817.57,704.5 126.605,36.9 137.135,213.7 -23.738,221.6 -158.133,7.78 -704.176,-52.75 -743.722,-52.75 -39.567,0 -43.133,8.54 -29.02,44.85 18.473,47.5 218.895,398.41 820.219,464.37 203.086,15.85 182.706,249.52 0.73,262.74 z" /></clipPath><clipPath
       id="clipPath218"
       clipPathUnits="userSpaceOnUse"><path
         id="path216"
         d="M 0,0 H 9980 V 3160 H 0 Z" /></clipPath><clipPath
       id="clipPath228"
       clipPathUnits="userSpaceOnUse"><path
         style="clip-rule:evenodd"
         id="path226"
         d="m 1636.91,2333.55 c 0,119.32 -177.11,192.6 -243.86,23.64 -128.5,-325.32 -167.53,-1311.11 262.54,-1311.11 188.8,0.01 429.75,413.9 429.75,817.9 0,333.17 -136.35,550.93 -165.2,590.24 -28.85,39.37 -68.19,18.37 -62.94,-55.11 5.25,-73.41 26.21,-752.86 -186.2,-999.48 -83.9,-91.79 -145.73,3.83 -154.69,94.42 -26.23,264.99 120.6,666.36 120.6,839.5 z" /></clipPath><clipPath
       id="clipPath234"
       clipPathUnits="userSpaceOnUse"><path
         id="path232"
         d="M 0,0 H 9980 V 3160 H 0 Z" /></clipPath><clipPath
       id="clipPath244"
       clipPathUnits="userSpaceOnUse"><path
         style="clip-rule:evenodd"
         id="path242"
         d="m 3602.35,1274.7 c -120.76,0 -187.87,156.04 -187.87,325.51 0,298.66 214.68,570.37 214.68,570.37 59.03,-75.31 201.26,-287.84 201.26,-503.07 0,-215.26 -107.38,-392.81 -228.07,-392.81 z m 96.59,990.05 c 0,0 68.22,92.73 27.17,145.06 -46.16,58.97 -194.1,77.35 -332.7,-77.99 -182.48,-204.46 -310.32,-635.94 -172.12,-997.93 132.12,-346.12 502.07,-375.355 673.51,-113.03 152.94,234.11 112.71,624.21 -195.86,1043.89 z" /></clipPath><clipPath
       id="clipPath250"
       clipPathUnits="userSpaceOnUse"><path
         id="path248"
         d="M 0,0 H 9980 V 3160 H 0 Z" /></clipPath><clipPath
       id="clipPath260"
       clipPathUnits="userSpaceOnUse"><path
         style="clip-rule:evenodd"
         id="path258"
         d="m 2485.41,1911.64 c 10.55,134.55 21.1,274.4 21.1,274.4 0.02,0.02 300.69,76.55 403.51,65.95 89.54,-9.17 108.14,-47.47 62.55,-118.29 -107.37,-166.75 -354.24,-224.47 -487.16,-222.06 z m 645.41,-892.35 c -128.62,178.58 -290.16,536.07 -537.28,752.5 250.56,15.85 564.39,211.07 564.39,419.52 0,154.36 -160.52,265.61 -368.85,265.61 -208.35,0 -438.16,-70.37 -525.2,-123.12 -113.43,-65.96 -29.02,-221.62 76.5,-179.44 0,0 -39.57,-184.65 -50.11,-282.3 -85.68,10.6 -102.89,-5.26 -97.61,-23.74 5.3,-18.45 42.2,-34.32 84.41,-87.11 -13.19,-116.05 -36.55,-632.29 -31.28,-677.16 5.32,-45.18 32.53,-52.98 71.2,-5.26 34.3,42.18 107.76,144.2 142.05,529.39 39.56,-34.25 147.69,-179.17 279.57,-348.24 193.41,-248.02 257.18,-265.905 336.64,-293.862 42.87,-15.148 87.07,9.488 55.57,53.212 z" /></clipPath><clipPath
       id="clipPath266"
       clipPathUnits="userSpaceOnUse"><path
         id="path264"
         d="M 0,0 H 9980 V 3160 H 0 Z" /></clipPath><clipPath
       id="clipPath276"
       clipPathUnits="userSpaceOnUse"><path
         style="clip-rule:evenodd"
         id="path274"
         d="m 4250.28,2141.2 c 5.51,493.33 262.13,647.74 401.9,647.74 195.19,0 275.78,-149.06 288.96,-215.06 13.18,-65.94 87.04,-118.69 110.78,-10.53 23.75,108.16 253.38,438 535.56,438 258.45,0.02 347.96,-266.64 340.2,-493.43 C 5906.56,1890.54 5111.51,1397.8 5006.87,1086.64 4913.69,1275.1 4243.72,1547.5 4250.28,2141.2 Z M 5679.8,3154.36 c -232.09,0 -506.59,-171.49 -672.71,-456.47 -44.83,102.93 -204.57,215.07 -394.43,215.07 -152.99,0 -582.44,-191.29 -582.44,-808.71 0,-796.82 805.82,-960.48 968.74,-1208.125 11.18,-17.031 47.25,-29.887 60.99,10.801 129.99,383.774 1137.92,817.394 1137.92,1598.374 0,437.99 -285.98,649.06 -518.07,649.06 z" /></clipPath><clipPath
       id="clipPath282"
       clipPathUnits="userSpaceOnUse"><path
         id="path280"
         d="M 0,0 H 9980 V 3160 H 0 Z" /></clipPath><clipPath
       id="clipPath292"
       clipPathUnits="userSpaceOnUse"><path
         style="clip-rule:evenodd"
         id="path290"
         d="m 6335.41,2422.68 c 6.97,-268.16 -228.7,-694.52 -243.77,-1005.74 -11.06,-226.87 29.59,-318.66 48.92,-348.55 20.2,-31.28 64.46,-33.98 76.28,22.91 35.23,169.99 277.93,618.13 309.03,978.49 19.07,220.89 -49.42,356.06 -128.25,381.61 -35.19,11.39 -63.19,7.11 -62.21,-28.72" /></clipPath><clipPath
       id="clipPath298"
       clipPathUnits="userSpaceOnUse"><path
         id="path296"
         d="M 0,0 H 9980 V 3160 H 0 Z" /></clipPath><clipPath
       id="clipPath308"
       clipPathUnits="userSpaceOnUse"><path
         style="clip-rule:evenodd"
         id="path306"
         d="m 7214.39,2456.92 c -329.75,0 -567.58,-116.97 -567.58,-382.56 0.01,-163.61 121.31,-276.16 314.72,-307.84 112.54,-21.1 222.07,-29.37 261.97,-43.97 72.16,-26.35 -100.55,-109.5 -369.34,-291.87 -183.63,-124.6 -317.76,-256.24 -389.43,-396.02 -24.82,-48.387 8.77,-94.59 60.68,-58.844 100.79,69.434 321.66,185.154 535.96,303.104 203.94,112.26 396.04,235.61 396.04,389.09 0,138.99 -104.26,191.38 -184.65,200.55 -138.91,15.78 -439.58,3.5 -439.58,177.63 0.02,65.09 86.15,150.42 363.08,150.42 213.65,0 192.1,260.31 18.13,260.31" /></clipPath><clipPath
       id="clipPath314"
       clipPathUnits="userSpaceOnUse"><path
         id="path312"
         d="M 0,0 H 9980 V 3160 H 0 Z" /></clipPath><clipPath
       id="clipPath324"
       clipPathUnits="userSpaceOnUse"><path
         style="clip-rule:evenodd"
         id="path322"
         d="m 7629.63,2408.5 c 107.89,-207.2 -75.72,-770.85 -75.72,-984.99 0.02,-214.14 24.1,-289.62 80.76,-359.03 28.97,-35.56 67.01,-14.24 70.52,24.16 17.57,188.75 220.25,701.04 233.33,939.08 16.71,303.21 -132.96,420.69 -220.64,428.11 -48.58,4.1 -112.83,-4.69 -88.25,-47.33" /></clipPath><clipPath
       id="clipPath330"
       clipPathUnits="userSpaceOnUse"><path
         id="path328"
         d="M 0,0 H 9980 V 3160 H 0 Z" /></clipPath><clipPath
       id="clipPath340"
       clipPathUnits="userSpaceOnUse"><path
         style="clip-rule:evenodd"
         id="path338"
         d="m 7703.86,2700.87 c -5.51,-197.45 323.68,-229.32 323.68,12.08 0,210.36 -175.93,384.37 -211.26,413.33 -54.92,44.8 -132.59,36.71 -114.3,-35.7 42.12,-151.76 3.77,-320.73 1.88,-389.71" /></clipPath><clipPath
       id="clipPath346"
       clipPathUnits="userSpaceOnUse"><path
         id="path344"
         d="M 0,0 H 9980 V 3160 H 0 Z" /></clipPath><clipPath
       id="clipPath356"
       clipPathUnits="userSpaceOnUse"><path
         style="clip-rule:evenodd"
         id="path354"
         d="m 9962.07,1066.6 c -43.02,265.21 16.16,606.45 16.16,928.01 0,245.49 -203.93,371.69 -324.93,371.69 -157.21,0 -250.59,-70.91 -250.59,-70.91 1.76,46.72 9.83,118.6 8.35,141.27 -1.73,25.93 -32.8,25.96 -77.73,1.73 -247.16,-153.85 -282.85,-595.3 -282.85,-901.28 0.02,-306 48.7,-414.46 53.81,-455.92 4.95,-39.38 53.31,-45.27 72.33,-10.69 131.34,255.88 146.68,721.84 191.56,981.19 62.26,84.7 316.21,100.26 326.62,-102.02 10.56,-205.84 -9.28,-726.22 201.16,-907.9 28.39,-24.47 72.33,-13.27 66.11,24.83" /></clipPath><clipPath
       id="clipPath362"
       clipPathUnits="userSpaceOnUse"><path
         id="path360"
         d="M 0,0 H 9980 V 3160 H 0 Z" /></clipPath><style
       id="style1">.cls-1{fill:#0054a6;}.cls-2{fill:#f7941e;}.cls-3{fill:#ed1b35;}</style><circle
       id="rb"
       r="145.6633"
       fill="none"
       stroke="#013ba6"
       stroke-width="39.0304"
       cx="0"
       cy="0" /><circle
       id="rw"
       r="145.6633"
       fill="none"
       stroke="#ffffff"
       stroke-width="17.3468"
       cx="0"
       cy="0" /></defs><g
     id="g1422"
     transform="matrix(2.3552364,0,0,2.3552364,536.09209,-2.766965)"
     style="display:inline"><path
       class="cls-1"
       d="m 110.737,38.467 c 1.272,-60.291 -53.66,-17.483 -53.897,-6.649 -0.048,2.183 -1.566,1.871 -2.043,0.25 -7.773,-26.408 -56.859,-10 -42.145,37.601 1.513,4.896 5.603,14.379 8.205,17.988 40.65,56.386 39.014,33.576 70.001,-7.604 8.912,-11.844 19.59,-27.887 19.879,-41.586 z"
       id="path2"
       style="display:inline;fill:#ff0000;stroke:#ff0000;stroke-width:0.9999;stroke-dasharray:none;stroke-opacity:1" /><polygon
       class="cls-1"
       points="63.442,58.539 63.442,42.169 49.402,43.639 49.402,60.019 33.022,61.739 33.022,75.779 49.402,74.049 49.402,90.429 63.442,88.959 63.442,72.579 79.822,70.859 79.822,56.819 "
       id="polygon1"
       style="display:inline;fill:#ffffff" /></g><g
     transform="matrix(1.3333333,0,0,-1.3333333,1.063591,421.33333)"
     id="g10"><g
       transform="scale(0.1)"
       id="g12"><g
         id="g14"><g
           clip-path="url(#clipPath20)"
           id="g16"><g
             clip-path="url(#clipPath26)"
             id="g22"><path
               id="path28"
               style="fill:#000000;fill-opacity:1;fill-rule:nonzero;stroke:none"
               d="m 1673.66,0 h 509.641 V 586.305 H 1673.66 Z" /></g></g></g><g
         id="g30"><g
           clip-path="url(#clipPath36)"
           id="g32"><g
             clip-path="url(#clipPath42)"
             id="g38"><path
               id="path44"
               style="fill:#000000;fill-opacity:1;fill-rule:nonzero;stroke:none"
               d="m 2195.03,0 h 650.125 V 587.801 H 2195.03 Z" /></g></g></g><g
         id="g46"><g
           clip-path="url(#clipPath52)"
           id="g48"><g
             clip-path="url(#clipPath58)"
             id="g54"><path
               id="path60"
               style="fill:#000000;fill-opacity:1;fill-rule:nonzero;stroke:none"
               d="m 2876.12,0 h 559.906 V 578.918 H 2876.12 Z" /></g></g></g><g
         id="g62"><g
           clip-path="url(#clipPath68)"
           id="g64"><g
             clip-path="url(#clipPath74)"
             id="g70"><path
               id="path76"
               style="fill:#000000;fill-opacity:1;fill-rule:nonzero;stroke:none"
               d="m 3481.06,0 h 593.195 V 587.801 H 3481.06 Z" /></g></g></g><g
         id="g78"><g
           clip-path="url(#clipPath84)"
           id="g80"><g
             clip-path="url(#clipPath90)"
             id="g86"><path
               id="path92"
               style="fill:#000000;fill-opacity:1;fill-rule:nonzero;stroke:none"
               d="m 4371.45,0 h 577.648 V 587.801 H 4371.45 Z" /></g></g></g><g
         id="g94"><g
           clip-path="url(#clipPath100)"
           id="g96"><g
             clip-path="url(#clipPath106)"
             id="g102"><path
               id="path108"
               style="fill:#000000;fill-opacity:1;fill-rule:nonzero;stroke:none"
               d="m 4946.81,0 h 650.125 V 587.801 H 4946.81 Z" /></g></g></g><g
         id="g110"><g
           clip-path="url(#clipPath116)"
           id="g112"><g
             clip-path="url(#clipPath122)"
             id="g118"><path
               id="path124"
               style="fill:#000000;fill-opacity:1;fill-rule:nonzero;stroke:none"
               d="m 5627.91,0 h 559.938 V 578.918 H 5627.91 Z" /></g></g></g><g
         id="g126"><g
           clip-path="url(#clipPath132)"
           id="g128"><g
             clip-path="url(#clipPath138)"
             id="g134"><path
               id="path140"
               style="fill:#000000;fill-opacity:1;fill-rule:nonzero;stroke:none"
               d="m 6208.43,0 h 528.863 V 578.918 H 6208.43 Z" /></g></g></g><g
         id="g142"><g
           clip-path="url(#clipPath148)"
           id="g144"><g
             clip-path="url(#clipPath154)"
             id="g150"><path
               id="path156"
               style="fill:#000000;fill-opacity:1;fill-rule:nonzero;stroke:none"
               d="m 6768.99,0 h 494.129 V 578.918 H 6768.99 Z" /></g></g></g><g
         id="g158"><g
           clip-path="url(#clipPath164)"
           id="g160"><g
             clip-path="url(#clipPath170)"
             id="g166"><path
               id="path172"
               style="fill:#000000;fill-opacity:1;fill-rule:nonzero;stroke:none"
               d="m 7272.63,0 h 509.641 V 586.305 H 7272.63 Z" /></g></g></g><g
         id="g174"><g
           clip-path="url(#clipPath180)"
           id="g176"><g
             clip-path="url(#clipPath186)"
             id="g182"><path
               id="path188"
               style="fill:#000000;fill-opacity:1;fill-rule:nonzero;stroke:none"
               d="m 7777.01,0 h 528.852 V 578.918 H 7777.01 Z" /></g></g></g><g
         id="g190"><g
           clip-path="url(#clipPath196)"
           id="g192"><g
             clip-path="url(#clipPath202)"
             id="g198"><path
               id="path204"
               style="fill:#000000;fill-opacity:1;fill-rule:nonzero;stroke:none"
               d="m 7978.99,996.184 h 984.855 v 1510.44 H 7978.99 Z" /></g></g></g><g
         id="g206"><g
           clip-path="url(#clipPath212)"
           id="g208"><g
             clip-path="url(#clipPath218)"
             id="g214"><path
               id="path220"
               style="fill:#000000;fill-opacity:1;fill-rule:nonzero;stroke:none"
               d="m 0,790.402 h 1285.53 v 2172.15 H 0 Z" /></g></g></g><g
         id="g222"><g
           clip-path="url(#clipPath228)"
           id="g224"><g
             clip-path="url(#clipPath234)"
             id="g230"><path
               id="path236"
               style="fill:#000000;fill-opacity:1;fill-rule:nonzero;stroke:none"
               d="m 1256.04,996.078 h 879.301 v 1527.68 H 1256.04 Z" /></g></g></g><g
         id="g238"><g
           clip-path="url(#clipPath244)"
           id="g240"><g
             clip-path="url(#clipPath250)"
             id="g246"><path
               id="path252"
               style="fill:#000000;fill-opacity:1;fill-rule:nonzero;stroke:none"
               d="m 3113.01,996.086 h 918.41 v 1506.7 h -918.41 z" /></g></g></g><g
         id="g254"><g
           clip-path="url(#clipPath260)"
           id="g256"><g
             clip-path="url(#clipPath266)"
             id="g262"><path
               id="path268"
               style="fill:#000000;fill-opacity:1;fill-rule:nonzero;stroke:none"
               d="m 2141.8,911.598 h 1066.13 v 1595.32 H 2141.8 Z" /></g></g></g><g
         id="g270"><g
           clip-path="url(#clipPath276)"
           id="g272"><g
             clip-path="url(#clipPath282)"
             id="g278"><path
               id="path284"
               style="fill:#000000;fill-opacity:1;fill-rule:nonzero;stroke:none"
               d="m 3980.22,829.875 h 2267.65 v 2374.48 H 3980.22 Z" /></g></g></g><g
         id="g286"><g
           clip-path="url(#clipPath292)"
           id="g288"><g
             clip-path="url(#clipPath298)"
             id="g294"><path
               id="path300"
               style="fill:#000000;fill-opacity:1;fill-rule:nonzero;stroke:none"
               d="m 6039.76,996.34 h 539.332 V 2507 H 6039.76 Z" /></g></g></g><g
         id="g302"><g
           clip-path="url(#clipPath308)"
           id="g304"><g
             clip-path="url(#clipPath314)"
             id="g310"><path
               id="path316"
               style="fill:#000000;fill-opacity:1;fill-rule:nonzero;stroke:none"
               d="m 6406.39,913.125 h 1101.03 v 1593.79 H 6406.39 Z" /></g></g></g><g
         id="g318"><g
           clip-path="url(#clipPath324)"
           id="g320"><g
             clip-path="url(#clipPath330)"
             id="g326"><path
               id="path332"
               style="fill:#000000;fill-opacity:1;fill-rule:nonzero;stroke:none"
               d="m 7503.91,996.336 h 485.898 v 1510.4 H 7503.91 Z" /></g></g></g><g
         id="g334"><g
           clip-path="url(#clipPath340)"
           id="g336"><g
             clip-path="url(#clipPath346)"
             id="g342"><path
               id="path348"
               style="fill:#000000;fill-opacity:1;fill-rule:nonzero;stroke:none"
               d="m 7649.25,2492.26 h 428.289 v 711.668 H 7649.25 Z" /></g></g></g><g
         id="g350"><g
           clip-path="url(#clipPath356)"
           id="g352"><g
             clip-path="url(#clipPath362)"
             id="g358"><path
               id="path364"
               style="fill:#000000;fill-opacity:1;fill-rule:nonzero;stroke:none"
               d="m 9000.48,978.801 h 1027.74 v 1527.54 H 9000.48 Z" /></g></g></g></g></g><g
     id="g2477"
     transform="translate(1.063591)"
     style="display:none"><path
       style="fill:#000000;fill-opacity:1;stroke:none;stroke-width:0.417459;stroke-dasharray:none;stroke-opacity:1"
       d="m 244.27139,532.13073 c -5.18994,-0.48356 -10.23748,-2.27995 -14.62437,-5.20476 -1.81905,-1.21279 -4.17818,-3.12353 -4.14563,-3.3577 0.0111,-0.0795 0.80033,-1.08044 1.75393,-2.22423 l 1.73383,-2.07961 1.79137,1.44001 c 5.34261,4.29472 10.36191,6.12769 16.77028,6.12425 4.5542,-0.002 7.63783,-1.04727 9.97629,-3.38025 1.99936,-1.99467 2.71425,-4.16298 2.41285,-7.31834 -0.27227,-2.85044 -1.86036,-4.88271 -4.99303,-6.38956 -2.18461,-1.05082 -4.12966,-1.6716 -8.37107,-2.6717 -8.73107,-2.05873 -12.31344,-3.557 -15.32681,-6.41018 -1.54125,-1.45931 -2.47449,-2.92171 -3.15035,-4.93663 -0.44088,-1.31436 -0.47598,-1.63863 -0.47969,-4.43163 -0.004,-2.84609 0.0235,-3.0923 0.49046,-4.43163 1.34723,-3.86389 4.48421,-7.16544 8.43502,-8.87755 6.3021,-2.73104 15.2948,-2.27422 22.0854,1.12192 1.48224,0.7413 4.43065,2.61049 5.37057,3.40475 l 0.40715,0.34405 -1.71847,2.29266 -1.71847,2.29266 -1.51475,-1.12006 c -2.66543,-1.97092 -5.96692,-3.48027 -9.33476,-4.2676 -1.99686,-0.46682 -7.44552,-0.47007 -9.12915,-0.005 -3.08937,0.85256 -5.52743,2.69074 -6.6907,5.04445 -0.61775,1.24993 -0.66671,1.46785 -0.72726,3.23682 -0.10819,3.16105 0.71587,5.08175 2.8574,6.65991 2.42578,1.78764 5.40884,2.87615 12.09433,4.41318 3.3944,0.7804 6.95101,1.92168 9.04159,2.90135 4.42361,2.07297 7.22916,5.1491 8.18229,8.97142 0.45274,1.8156 0.40768,5.55875 -0.0892,7.40501 -1.21456,4.51346 -4.70556,8.22124 -9.47557,10.06399 -3.4674,1.33953 -7.45939,1.80544 -11.91353,1.39045 z"
       id="path2156" /><path
       style="fill:#000000;fill-opacity:1;stroke:none;stroke-width:0.295188;stroke-dasharray:none;stroke-opacity:1"
       d="m 296.40673,531.24769 c -0.13634,-0.39781 -4.51333,-12.74865 -9.72664,-27.44631 -5.21331,-14.69767 -9.47874,-26.75526 -9.47874,-26.79466 0,-0.0394 1.47245,-0.0566 3.27212,-0.0382 l 3.27212,0.0334 7.7774,22.68752 c 4.27758,12.47814 7.797,22.71102 7.82095,22.73975 0.024,0.0287 0.0704,0.0254 0.10326,-0.007 0.0328,-0.0328 3.2783,-9.87089 7.21213,-21.86233 3.93382,-11.99143 7.29629,-22.24089 7.47215,-22.77659 l 0.31974,-0.97398 2.50763,0.0339 2.50763,0.0339 7.46323,22.75019 c 4.10477,12.5126 7.48375,22.77369 7.50885,22.80242 0.0251,0.0287 0.0702,0.0276 0.1003,-0.002 0.0301,-0.0301 3.55568,-10.25853 7.83471,-22.72992 4.27903,-12.4714 7.79956,-22.69478 7.8234,-22.71862 0.0238,-0.0238 1.45098,-0.0283 3.17143,-0.01 l 3.12807,0.0335 -9.73485,27.45065 -9.73485,27.45064 -2.55811,0.0338 -2.55812,0.0338 -7.45601,-22.06971 c -4.10081,-12.13834 -7.49525,-22.13567 -7.54321,-22.2163 -0.048,-0.0806 -0.10913,-0.12001 -0.13594,-0.0875 -0.0268,0.0325 -3.42872,10.0146 -7.5598,22.18251 l -7.51106,22.12346 -2.52495,0.0339 -2.52494,0.0339 z"
       id="path2434" /><path
       style="fill:#000000;fill-opacity:1;stroke:none;stroke-width:0.295188;stroke-dasharray:none;stroke-opacity:1"
       d="m 372.83989,504.26454 v -27.3253 h 3.00829 3.00829 v 27.3253 27.32529 h -3.00829 -3.00829 z"
       id="path2436" /><path
       style="fill:#000000;fill-opacity:1;stroke:none;stroke-width:0.295188;stroke-dasharray:none;stroke-opacity:1"
       d="m 413.95318,507.08481 v -24.50503 h -9.21289 -9.21289 v -2.82027 -2.82027 h 21.43407 21.43406 v 2.82027 2.82027 h -9.15021 -9.15022 v 24.50503 24.50502 h -3.07096 -3.07096 z"
       id="path2438" /><path
       style="fill:#000000;fill-opacity:1;stroke:none;stroke-width:0.20873;stroke-dasharray:none;stroke-opacity:1"
       d="m 450.65366,529.5132 10e-4,-2.01639 14.01185,-17.81515 c 7.70652,-9.79833 15.6753,-19.92904 17.70839,-22.51268 l 3.69654,-4.69752 -17.13358,-0.0224 -17.13358,-0.0224 v -2.74738 -2.74739 h 21.31614 21.31613 v 2.0258 2.02579 l -17.72651,22.48988 c -9.74959,12.36944 -17.72652,22.52582 -17.72652,22.56975 0,0.0471 7.26524,0.0799 17.72652,0.0799 h 17.72651 v 2.7033 2.70329 h -21.89224 -21.89225 z"
       id="path2440" /><path
       style="fill:#000000;fill-opacity:1;stroke:none;stroke-width:0.20873;stroke-dasharray:none;stroke-opacity:1"
       d="m 511.72021,504.23075 v -27.29883 h 19.76506 19.76507 v 2.74761 2.74761 H 534.5431 517.83586 v 9.39505 9.39506 h 14.93459 14.93459 v 2.79192 2.79193 h -14.93459 -14.93459 v 9.61663 9.61664 h 16.8845 16.88451 v 2.74761 2.74761 h -19.94233 -19.94233 z"
       id="path2442" /><path
       style="fill:#000000;fill-opacity:1;stroke:none;stroke-width:0.20873;stroke-dasharray:none;stroke-opacity:1"
       d="m 568.53369,504.22719 v -27.3024 l 13.09547,0.031 c 11.83175,0.028 13.19382,0.0457 14.11474,0.18355 3.16132,0.47301 5.26898,1.09385 7.48684,2.20533 3.90885,1.95892 6.51434,4.90813 7.744,8.76559 1.04423,3.27573 1.02769,7.23517 -0.0436,10.43711 -1.53608,4.59118 -5.18895,7.96955 -10.54097,9.74885 -0.72741,0.24183 -1.80118,0.54616 -2.38615,0.67629 -0.58498,0.13014 -1.07377,0.24673 -1.0862,0.25911 -0.0124,0.0124 3.73924,5.0245 8.33704,11.13805 l 8.35964,11.11556 -3.63946,0.0232 c -2.0017,0.0127 -3.68265,0.007 -3.73545,-0.0137 -0.0528,-0.0203 -3.65591,-4.80688 -8.00692,-10.63692 l -7.91093,-10.60007 h -7.83621 -7.8362 v 10.63591 10.63591 h -3.05782 -3.05783 z m 25.65913,0.45633 c 2.2008,-0.33218 3.82199,-0.81351 5.40659,-1.60521 3.87844,-1.93775 5.98917,-5.33233 5.97944,-9.61641 -0.007,-2.91859 -0.83316,-5.17241 -2.56478,-6.9937 -1.49104,-1.56825 -3.31481,-2.58869 -5.7835,-3.23597 -2.5352,-0.66472 -3.50393,-0.71453 -13.91739,-0.71558 l -8.66384,-8.8e-4 v 11.17283 11.17282 l 9.41721,-0.0354 c 6.74192,-0.0254 9.61865,-0.0658 10.12627,-0.14246 z"
       id="path2444" /><path
       style="fill:#000000;fill-opacity:1;stroke:none;stroke-width:0.295188;stroke-dasharray:none;stroke-opacity:1"
       d="m 629.54726,504.26454 v -27.3253 h 3.00829 3.00829 v 24.50503 24.50502 h 15.41749 15.41748 v 2.82027 2.82027 h -18.42577 -18.42578 z"
       id="path2446" /><path
       style="fill:#000000;fill-opacity:1;stroke:none;stroke-width:0.20873;stroke-dasharray:none;stroke-opacity:1"
       d="m 677.70989,531.37562 c 0.0423,-0.0859 5.6371,-12.45069 12.43285,-27.47724 l 12.3559,-27.32099 2.88216,0.003 2.88216,0.003 12.00971,26.56062 c 6.60534,14.60833 12.1969,26.97137 12.42568,27.47341 l 0.41597,0.9128 h -3.26576 -3.26576 l -3.19386,-7.2014 -3.19386,-7.20139 -14.92759,-0.0224 -14.92759,-0.0224 -0.41294,0.90874 c -0.22712,0.4998 -1.68261,3.74055 -3.23443,7.20165 l -2.8215,6.29291 -3.11904,0.0233 c -2.95356,0.0221 -3.11496,0.015 -3.0421,-0.13295 z m 39.78482,-20.43095 c -0.16048,-0.35342 -2.96017,-6.63525 -6.22153,-13.95963 -3.26136,-7.32437 -5.95171,-13.31704 -5.97854,-13.31704 -0.0522,0 -12.50149,27.74116 -12.49934,27.85278 7e-4,0.0366 5.624,0.0665 12.49623,0.0665 h 12.49495 z"
       id="path2448" /><path
       style="fill:#000000;fill-opacity:1;stroke:none;stroke-width:0.20873;stroke-dasharray:none;stroke-opacity:1"
       d="m 748.45783,504.23075 v -27.29883 l 2.8584,0.002 2.8584,0.002 5.72346,7.28776 c 3.1479,4.00826 10.80188,13.74906 17.00884,21.64623 6.20696,7.89716 11.36903,14.46595 11.47127,14.59731 0.10223,0.13136 0.21579,0.24104 0.25235,0.24374 0.0366,0.003 0.0665,-9.84661 0.0665,-21.88734 v -21.89225 h 2.9692 2.96919 v 27.29883 27.29884 h -2.43232 -2.43233 l -11.46342,-14.5579 c -6.30488,-8.00685 -14.25418,-18.10166 -17.66511,-22.43292 l -6.2017,-7.87501 -0.0223,22.43291 -0.0223,22.43292 h -2.96902 -2.96902 z"
       id="path2450" /><path
       style="fill:#000000;fill-opacity:1;stroke:none;stroke-width:0.295188;stroke-dasharray:none;stroke-opacity:1"
       d="m 814.68242,504.26454 v -27.3253 l 10.12164,0.001 c 9.97575,10e-4 11.77284,0.057 14.24655,0.44324 9.1431,1.42771 16.79267,6.74315 20.62243,14.32987 2.93833,5.82078 3.68037,13.04458 2.00673,19.53559 -2.45842,9.53472 -9.79926,16.68161 -19.73473,19.21331 -3.9419,1.00446 -5.79831,1.11906 -18.20642,1.12395 l -9.0562,0.004 z m 23.02431,21.39588 c 6.54046,-1.04559 11.68723,-4.14323 15.00069,-9.02832 1.34324,-1.98036 2.58226,-4.96887 3.0748,-7.41642 2.46132,-12.23085 -4.15346,-23.10015 -15.78003,-25.92947 -2.65975,-0.64724 -3.64737,-0.70643 -11.78889,-0.70643 h -7.5143 v 21.69316 21.69316 l 7.86542,-0.0508 c 6.47847,-0.0418 8.09058,-0.0868 9.14231,-0.2549 z"
       id="path2452" /><path
       style="fill:#000000;fill-opacity:1;stroke:none;stroke-width:0.295188;stroke-dasharray:none;stroke-opacity:1"
       d="m 904.05369,529.23371 v -2.35612 l 10.24698,-9.03698 c 11.24148,-9.91404 13.46866,-11.95271 15.47891,-14.16879 3.14057,-3.46215 4.69436,-6.09744 5.28713,-8.96722 0.25933,-1.25551 0.25864,-3.69425 -10e-4,-4.95319 -1.11499,-5.39803 -6.38626,-8.77587 -12.57275,-8.05665 -3.37285,0.39212 -6.0474,1.7112 -8.76451,4.32266 -1.22421,1.17661 -3.05901,3.29552 -3.78313,4.36893 -0.17235,0.25548 -0.35745,0.4649 -0.41134,0.46537 -0.0739,6.5e-4 -4.07468,-2.8416 -4.33879,-3.08239 -0.14067,-0.12824 2.03796,-3.02675 3.55225,-4.72601 4.3162,-4.84341 9.7071,-7.05908 16.59509,-6.8206 2.29439,0.0794 3.72286,0.31575 5.51544,0.91244 7.20954,2.39978 11.32423,8.61547 10.6772,16.12907 -0.37912,4.40248 -1.94794,7.70861 -5.66941,11.94774 -2.1798,2.483 -2.88094,3.12502 -19.62878,17.97355 -1.66798,1.47881 -3.03268,2.73383 -3.03268,2.78893 0,0.0551 6.51483,0.10019 14.47739,0.10019 h 14.4774 v 2.7576 2.75759 h -19.0525 -19.0525 z"
       id="path2454" /><path
       style="fill:#000000;fill-opacity:1;stroke:none;stroke-width:0.295188;stroke-dasharray:none;stroke-opacity:1"
       d="m 977.00471,532.33712 c -7.60764,-0.93208 -13.6983,-5.49534 -17.3092,-12.96846 -1.41702,-2.93265 -2.31598,-5.88158 -2.89947,-9.51136 -0.25038,-1.55759 -0.28434,-2.22047 -0.28328,-5.53009 0.001,-4.01709 0.0999,-5.055 0.76187,-8.0221 1.85572,-8.31718 6.56824,-14.9042 12.95614,-18.10975 1.50872,-0.7571 2.9388,-1.26291 4.84094,-1.71222 1.41772,-0.33488 1.64523,-0.35291 4.43991,-0.35196 3.24403,0.001 4.32091,0.15342 6.70598,0.94844 8.43454,2.81152 14.4147,11.09906 15.9189,22.06091 0.283,2.06251 0.3776,5.96742 0.1955,8.06962 -0.3985,4.59959 -1.4059,8.34873 -3.26728,12.15851 -1.45786,2.98393 -2.86024,4.92227 -5.21881,7.21332 -2.97867,2.89341 -6.44913,4.71034 -10.52648,5.51106 -1.56012,0.30638 -4.78789,0.43114 -6.31472,0.24408 z m 5.45447,-5.67884 c 2.81226,-0.61338 4.98684,-1.84364 7.21183,-4.08009 3.27738,-3.29426 5.31674,-7.80698 6.21967,-13.76296 0.26094,-1.72122 0.29971,-6.85205 0.0642,-8.49907 -0.68026,-4.75785 -1.9693,-8.36446 -4.16099,-11.64208 -2.51112,-3.7553 -5.97427,-6.18609 -9.85405,-6.91658 -1.64282,-0.30931 -4.72215,-0.19544 -6.18861,0.22884 -2.1541,0.62325 -3.6081,1.37817 -5.34102,2.77307 -3.83155,3.08421 -6.46979,8.40598 -7.46362,15.05537 -0.10888,0.72849 -0.16742,2.28255 -0.16525,4.38709 0.004,3.64942 0.14919,4.94172 0.87465,7.77141 0.56922,2.22028 0.93605,3.21067 1.94992,5.26451 2.63531,5.33851 6.68095,8.65065 11.64947,9.53736 1.17904,0.21042 3.99296,0.14722 5.20378,-0.11687 z"
       id="path2456" /><path
       style="fill:#000000;fill-opacity:1;stroke:none;stroke-width:0.295188;stroke-dasharray:none;stroke-opacity:1"
       d="m 1014.859,529.21759 v -2.37224 l 10.5604,-9.30705 c 12.9519,-11.41484 15.8556,-14.23225 18.0857,-17.54869 1.7768,-2.64246 2.5671,-5.06838 2.5633,-7.86866 -0.01,-4.0068 -1.9537,-7.30848 -5.3977,-9.14748 -4.0781,-2.17757 -9.7271,-1.73886 -13.8112,1.07259 -1.866,1.28453 -3.9223,3.3609 -5.8031,5.85978 -0.3955,0.52544 -0.7661,0.93931 -0.8237,0.91971 -0.2688,-0.0916 -4.2456,-3.03539 -4.2456,-3.14283 0,-0.18739 1.6173,-2.39256 2.7314,-3.72414 3.1186,-3.7276 6.4485,-5.95693 10.4774,-7.01448 2.2293,-0.58517 3.1666,-0.68984 6.1571,-0.68756 2.3921,0.002 2.932,0.0398 4.0737,0.28672 6.9673,1.50677 11.6973,6.14569 12.7246,12.47965 0.2177,1.34179 0.2421,3.91471 0.05,5.29332 -0.791,5.68674 -3.7967,9.88582 -12.775,17.84724 -11.3538,10.06776 -15.4175,13.70501 -15.4175,13.79975 0,0.0643 6.1159,0.11142 14.4774,0.11142 h 14.4774 v 2.7576 2.75759 h -19.0525 -19.0525 z"
       id="path2458" /><path
       style="fill:#000000;fill-opacity:1;stroke:none;stroke-width:0.295188;stroke-dasharray:none;stroke-opacity:1"
       d="m 1083.3747,532.33861 c -5.6211,-0.64371 -11.2019,-3.31419 -15.9816,-7.64726 l -0.9037,-0.81923 1.6464,-1.81302 c 0.9055,-0.99716 1.8084,-1.97889 2.0064,-2.18161 l 0.3601,-0.36859 0.7258,0.68553 c 2.7512,2.59861 6.3765,4.85914 9.4011,5.86194 5.6704,1.88004 11.8446,0.69386 15.3369,-2.94651 2.4831,-2.58842 3.583,-5.83145 3.2392,-9.55106 -0.1428,-1.54589 -0.4014,-2.47539 -1.0688,-3.84174 -1.3143,-2.69122 -3.6522,-4.63837 -6.866,-5.71852 -1.9165,-0.64414 -3.3618,-0.86226 -5.7074,-0.86137 -3.6924,10e-4 -6.5897,0.69457 -10.1986,2.43991 l -1.2272,0.59349 -2.0318,-1.34314 -2.0318,-1.34313 0.034,-0.58131 c 0.018,-0.31972 0.3421,-5.93982 0.7194,-12.48912 0.3772,-6.5493 0.7192,-12.26035 0.7599,-12.69122 l 0.074,-0.78341 h 15.6582 15.6582 v 2.82027 2.82027 h -13.0197 -13.0198 l -0.071,0.59539 c -0.143,1.20374 -1.1404,16.81876 -1.0782,16.88089 0.035,0.0353 0.7709,-0.21482 1.6346,-0.55588 2.8893,-1.14096 5.146,-1.61025 8.2562,-1.71692 6.0256,-0.20666 11.2699,1.56342 14.8966,5.028 2.1207,2.02594 3.5534,4.45245 4.3116,7.30205 0.3857,1.44975 0.395,1.5489 0.4016,4.30421 0.01,2.30544 -0.036,3.01476 -0.2269,3.8857 -1.2757,5.81667 -4.7757,10.06985 -10.2175,12.41593 -2.5316,1.09143 -5.112,1.61605 -8.288,1.68502 -1.2065,0.0262 -2.6383,-0.003 -3.1819,-0.0656 z"
       id="path2460" /></g><path
     style="fill:#000000;stroke:none;stroke-width:1.04232;stroke-linecap:round;stroke-linejoin:round"
     d="M 422.41996,500.01835 V 473.4488 l 12.45939,0.033 c 10.94224,0.029 12.59023,0.0508 13.53389,0.17908 5.25598,0.71453 9.26128,2.70515 11.54585,5.73823 1.00512,1.33444 1.78084,3.04891 2.14715,4.74554 0.22434,1.03905 0.22274,4.30102 -0.003,5.41564 -0.3379,1.67098 -1.02625,3.31837 -1.95574,4.68055 -0.61501,0.90131 -2.136,2.40369 -3.17029,3.13151 -0.46417,0.32663 -1.33301,0.84589 -1.93075,1.15391 -0.59773,0.30802 -1.08738,0.58002 -1.08811,0.60445 -7.1e-4,0.0244 0.49324,0.2118 1.0977,0.41638 4.39569,1.48772 7.49967,3.87147 9.01464,6.92294 1.00127,2.01677 1.42318,4.51307 1.1751,6.95257 -0.1958,1.9254 -0.54042,3.14838 -1.3423,4.76365 -0.65567,1.32073 -1.41018,2.33552 -2.54626,3.42466 -2.64629,2.53691 -6.17009,4.02141 -11.31566,4.76701 -0.90091,0.13054 -2.51374,0.15066 -14.31861,0.17855 l -13.30335,0.0314 z m 27.36056,21.02542 c 4.49426,-0.82939 7.27811,-2.5731 8.66727,-5.42889 0.57959,-1.1915 0.75975,-1.97879 0.8143,-3.55838 0.0892,-2.58283 -0.49383,-4.30159 -2.00975,-5.92483 -1.72071,-1.84252 -4.42545,-2.97443 -8.38051,-3.50716 -0.94125,-0.12679 -2.41098,-0.15143 -10.83876,-0.18173 l -9.74986,-0.0351 v 9.42518 9.42519 l 10.3273,-0.0294 c 9.37776,-0.0267 10.40478,-0.0437 11.17001,-0.18492 z m -3.53944,-23.96053 c 3.24829,-0.32859 5.74319,-1.34111 7.52583,-3.05424 1.18247,-1.13635 1.86337,-2.30647 2.29802,-3.94909 0.19719,-0.74521 0.22726,-1.04771 0.23508,-2.36475 0.008,-1.28478 -0.0203,-1.62572 -0.18724,-2.28393 -0.96071,-3.78843 -4.23636,-6.03105 -9.56678,-6.54975 -0.61032,-0.0594 -4.17883,-0.0944 -9.6166,-0.0944 h -8.64618 v 9.19463 9.19463 h 8.51894 c 5.29265,0 8.86736,-0.0353 9.43893,-0.0931 z"
     id="path1504" /><path
     style="fill:#000000;stroke:none;stroke-width:1.04232;stroke-linecap:round;stroke-linejoin:round"
     d="m 475.81218,526.51473 c 6.4e-4,-0.0367 5.42877,-12.05963 12.06249,-26.71773 l 12.06132,-26.6511 2.7955,-0.0206 2.79549,-0.0206 12.03742,26.61538 c 6.62058,14.63846 12.05034,26.67069 12.06614,26.73829 0.024,0.10288 -0.48466,0.1229 -3.12196,0.1229 h -3.15068 l -2.86358,-6.46289 c -1.57497,-3.55459 -2.97594,-6.71274 -3.11327,-7.01812 l -0.24969,-0.55523 h -14.51562 -14.51561 l -3.14631,7.01779 -3.14632,7.0178 -2.99825,3.5e-4 c -1.64903,1.6e-4 -2.99772,-0.0297 -2.99707,-0.0663 z m 38.78925,-19.76624 c -4.45652,-10.05188 -11.91231,-26.71713 -11.9521,-26.71544 -0.0425,0.002 -11.90842,26.41796 -12.14004,27.02637 -0.0562,0.1476 0.55744,0.15547 12.11987,0.15547 h 12.17905 z"
     id="path1506" /><path
     style="fill:#000000;stroke:none;stroke-width:1.04232;stroke-linecap:round;stroke-linejoin:round"
     d="m 558.12512,527.28859 c -6.35429,-0.44152 -11.83694,-2.51236 -16.9238,-6.39226 -1.35155,-1.03086 -2.42178,-1.94916 -2.38775,-2.04879 0.038,-0.1112 3.54167,-4.25918 3.59762,-4.25918 0.025,0 0.33123,0.25336 0.68056,0.56302 3.74874,3.32307 7.95799,5.53294 12.11616,6.36102 2.04599,0.40745 2.90364,0.4861 5.26476,0.48279 1.84609,-0.003 2.33741,-0.0325 3.2364,-0.19711 4.59527,-0.84139 7.7127,-3.3497 8.59606,-6.91644 0.24419,-0.98596 0.26807,-3.07868 0.0466,-4.08468 -0.61147,-2.77776 -2.47203,-4.55762 -6.37118,-6.09481 -1.76959,-0.69764 -3.93986,-1.30116 -7.72882,-2.14928 -5.38499,-1.20537 -9.19067,-2.6203 -11.85974,-4.40941 -3.03751,-2.03607 -4.71734,-4.56276 -5.33839,-8.0297 -0.22563,-1.2595 -0.22842,-4.21044 -0.005,-5.32699 0.79867,-3.9922 3.16897,-7.24441 6.87516,-9.4332 1.9784,-1.1684 4.22717,-1.93994 6.99662,-2.40051 1.21523,-0.2021 5.6548,-0.23181 7.15138,-0.0479 4.53193,0.55703 8.13615,1.81846 11.75062,4.11258 1.18303,0.75086 2.99632,2.09121 2.99632,2.2148 0,0.0721 -3.00751,4.15825 -3.2939,4.47531 -0.04,0.0443 -0.25979,-0.0758 -0.49871,-0.27257 -1.8582,-1.53043 -4.64349,-3.13777 -6.87748,-3.96887 -1.76385,-0.65619 -3.73243,-1.11894 -5.56551,-1.30828 -1.53007,-0.15803 -4.63092,-0.0601 -5.75156,0.18157 -4.26963,0.92092 -7.10075,3.3071 -7.86916,6.63244 -0.16762,0.72538 -0.18617,1.00742 -0.14667,2.23086 0.0653,2.02183 0.3983,3.09018 1.35027,4.33148 1.81661,2.36873 5.35245,3.91736 12.78881,5.60126 4.62797,1.04796 7.7563,2.0884 10.17834,3.38517 3.44259,1.84319 5.6256,4.1656 6.65214,7.07697 0.54774,1.55343 0.66777,2.37326 0.67227,4.59184 0.004,1.73746 -0.0223,2.12926 -0.19783,2.99627 -0.63176,3.12112 -2.23349,5.8609 -4.57922,7.83286 -2.65637,2.2331 -6.08712,3.63741 -10.11103,4.13876 -1.38783,0.17291 -3.95253,0.23459 -5.44432,0.13094 z"
     id="path1508" /><path
     style="fill:#000000;stroke:none;stroke-width:1.47407;stroke-linecap:round;stroke-linejoin:round"
     d="m 593.87428,500.02531 v -26.5717 h 19.15926 19.15926 v 2.70114 2.70114 h -16.26967 -16.26967 v 9.1085 9.10851 h 14.51079 14.51078 v 2.70114 2.70114 h -14.51078 -14.51079 v 9.35977 9.35977 h 16.45812 16.45812 v 2.70114 2.70114 h -19.34771 -19.34771 z"
     id="path1510" /><path
     style="fill:#000000;stroke:none;stroke-width:1.04232;stroke-linecap:round;stroke-linejoin:round"
     d="m 647.71061,500.01909 v -26.56227 h 2.93162 2.93163 v 23.85274 23.85274 h 14.96903 14.96904 v 2.70953 2.70952 h -17.90066 -17.90066 z"
     id="path1512" /><path
     style="fill:#000000;stroke:none;stroke-width:1.47407;stroke-linecap:round;stroke-linejoin:round"
     d="m 719.50878,524.34533 v -2.25167 l 10.00283,-8.82232 c 5.50156,-4.85227 10.83003,-9.59887 11.84105,-10.54799 4.69272,-4.40539 7.16355,-7.75132 8.12922,-11.00836 0.44181,-1.49015 0.56379,-4.14047 0.25843,-5.61494 -0.42348,-2.0448 -1.19653,-3.46191 -2.71812,-4.98274 -2.32042,-2.31924 -5.50109,-3.36785 -9.17769,-3.02571 -3.50626,0.32629 -6.14053,1.58564 -8.95709,4.28206 -1.11925,1.07151 -3.64137,4.03287 -3.81085,4.47453 -0.0367,0.0957 -0.11782,0.17395 -0.18023,0.17395 -0.13156,0 -4.08892,-2.84517 -4.19412,-3.01539 -0.0755,-0.12222 0.79454,-1.40056 1.92388,-2.82662 1.18951,-1.50203 2.48844,-2.88474 3.5704,-3.80071 3.35985,-2.84435 6.78698,-4.19653 11.57002,-4.56497 7.20508,-0.555 13.24476,2.26806 16.41935,7.67469 2.30755,3.92999 2.49096,9.79795 0.44859,14.35229 -1.21242,2.7036 -2.9544,5.00893 -6.34463,8.39642 -1.32377,1.3227 -6.13786,5.7026 -11.11616,10.11358 l -8.78117,7.78047 14.08923,0.032 14.08923,0.0319 v 2.7006 2.7006 h -18.53109 -18.53108 z"
     id="path1514" /><path
     style="fill:#000000;stroke:none;stroke-width:1.47407;stroke-linecap:round;stroke-linejoin:round"
     d="m 789.42437,527.4023 c -4.04742,-0.58457 -6.47265,-1.46177 -9.41775,-3.40639 -1.50725,-0.99523 -4.26272,-3.69506 -5.3806,-5.27196 -2.63584,-3.71817 -4.33511,-8.06969 -5.14316,-13.17073 -0.24229,-1.52952 -0.2783,-2.24218 -0.27617,-5.4651 0.002,-3.21257 0.0391,-3.92896 0.27753,-5.37855 1.37615,-8.36593 5.15609,-14.87105 10.88905,-18.73961 4.47789,-3.02165 10.22304,-4.06884 15.76543,-2.87362 8.22878,1.77454 14.69493,9.03093 16.88733,18.95118 0.66587,3.01294 0.76978,4.08136 0.76981,7.91497 2e-5,3.13908 -0.0359,3.80521 -0.29164,5.40228 -1.03947,6.49235 -3.52889,11.84197 -7.35469,15.80478 -2.99787,3.10521 -6.62211,5.11076 -10.7385,5.94235 -1.172,0.23677 -5.05414,0.42508 -5.98664,0.2904 z m 5.40229,-5.64453 c 4.36824,-1.08522 7.85912,-4.16953 10.23545,-9.04338 4.13765,-8.48629 3.49837,-20.26713 -1.50587,-27.75083 -2.45429,-3.6703 -5.66293,-5.96449 -9.42665,-6.74008 -1.82047,-0.37514 -4.3825,-0.30245 -6.20386,0.17601 -6.48897,1.70462 -11.23498,8.32419 -12.45674,17.37422 -0.29592,2.192 -0.29735,6.22069 -0.003,8.2719 0.62963,4.38661 1.92568,8.00468 3.9829,11.11865 1.61891,2.45052 4.48967,4.92056 6.87101,5.91191 2.54004,1.05743 5.90775,1.32726 8.50669,0.6816 z"
     id="path1516" /><path
     style="fill:#000000;stroke:none;stroke-width:1.04232;stroke-linecap:round;stroke-linejoin:round"
     d="m 824.58509,524.29116 v -2.29019 l 9.52244,-8.39246 c 10.78722,-9.50715 11.14691,-9.83044 13.38506,-12.03053 4.6044,-4.52611 6.6423,-7.63808 7.27137,-11.10368 0.20034,-1.10368 0.20022,-3.22382 -2.7e-4,-4.23126 -0.72749,-3.65647 -3.14867,-6.38547 -6.72563,-7.58074 -1.28573,-0.42964 -2.35102,-0.58517 -4.01105,-0.58559 -5.24658,-10e-4 -9.27135,2.45437 -13.57278,8.28144 -0.36727,0.49754 -0.60539,0.74698 -0.66627,0.69794 -0.0521,-0.042 -1.0142,-0.74371 -2.13799,-1.5594 -1.12379,-0.8157 -2.03423,-1.51682 -2.02319,-1.55806 0.011,-0.0412 0.26676,-0.42768 0.56828,-0.85875 3.90868,-5.58811 7.82644,-8.56335 12.82605,-9.74043 1.97603,-0.46523 2.82237,-0.54871 5.50789,-0.54329 2.32983,0.005 2.56498,0.0202 3.71128,0.24494 4.54155,0.89032 8.14036,3.15269 10.416,6.54797 1.60333,2.39219 2.43774,5.22091 2.44009,8.27215 0.003,4.04965 -1.21671,7.5369 -3.86381,11.04581 -1.57446,2.08706 -3.92415,4.53925 -7.02422,7.33065 -0.73256,0.65961 -4.79864,4.2734 -9.03573,8.03063 -4.2371,3.75723 -7.70382,6.86541 -7.70382,6.90708 0,0.0417 6.3363,0.0757 14.08067,0.0757 h 14.08066 v 2.66511 2.66511 h -18.52251 -18.52252 z"
     id="path1518" /><path
     style="fill:#000000;stroke:none;stroke-width:1.47407;stroke-linecap:round;stroke-linejoin:round"
     d="m 889.32,527.28166 c -5.33502,-0.72658 -10.5867,-3.27664 -14.78536,-7.17933 l -1.075,-0.99922 1.3743,-1.49829 c 0.75586,-0.82407 1.62378,-1.76715 1.9287,-2.09574 l 0.55441,-0.59744 1.03081,0.9161 c 3.7496,3.33235 7.2278,5.2226 11.0392,5.99932 1.57673,0.32131 4.32523,0.3477 5.85929,0.0562 5.40081,-1.0261 8.9483,-4.4091 9.895,-9.43621 0.25569,-1.35774 0.18861,-3.83127 -0.13755,-5.07217 -1.0878,-4.13858 -4.43411,-7.03698 -9.38108,-8.12538 -1.60326,-0.35274 -5.96581,-0.318 -7.72476,0.0615 -1.87836,0.40527 -3.8162,1.07011 -5.51312,1.89146 l -1.49845,0.72527 -1.88457,-1.24531 c -1.03651,-0.68492 -1.92892,-1.28737 -1.98313,-1.33876 -0.0796,-0.0754 1.07158,-20.99049 1.36794,-24.85362 l 0.0795,-1.03648 h 15.24973 15.24973 v 2.76396 2.76396 H 896.2842 883.60282 l -0.0686,0.53394 c -0.13588,1.05772 -1.10681,16.43929 -1.0418,16.5043 0.0366,0.0366 0.2273,-0.0162 0.42375,-0.11731 0.19644,-0.10113 1.06386,-0.43909 1.9276,-0.75102 3.93446,-1.42086 8.00483,-1.78651 12.12373,-1.0891 7.60608,1.28787 12.85217,6.08643 14.07402,12.87341 0.26834,1.49054 0.27576,4.51357 0.015,6.09422 -1.31117,7.94661 -7.38148,13.34541 -16.09914,14.31823 -1.52527,0.17021 -4.1242,0.13953 -5.63735,-0.0665 z"
     id="path1520" /></svg>
